# xmcd
#
# Track frame offsets:
#       150
#       14744
#       29864
#       44010
#       56380
#       71883
#       85510
#       99712
#       111663
#       124803
#       138691
#       151544
#       165781
#       180386
#       193392
#       208911
#       222571
#       237261
#       250815
#       263886
#       275713
#       288351
#       300597
#       312441
#
# Disc length: 4359 seconds
#
# Revision: 1
# Processed by: cddbd v1.4PL0 Copyright (c) Steve Scherf et al.
# Submitted via: MusiCat 1.1
#
DISCID=76110518
DTITLE=Lucky Millinder - Apollo Jump cd 1
DYEAR=1900
DGENRE=
TTITLE0=Slide, Mr. Trombone
TTITLE1=Ride, Red, Ride
TTITLE2=Big Fat Mama
TTITLE3=Shout, Sister, Shout
TTITLE4=Apollo Jump
TTITLE5=Hey, Huss!
TTITLE6=Let Me Off Uptown
TTITLE7=That's All
TTITLE8=I Want a Tall Skinny Papa
TTITLE9=Are You Ready?
TTITLE10=Mason Flyer
TTITLE11=Little John Special
TTITLE12=Sweet Slumber
TTITLE13=Shipyard Social Function
TTITLE14=Savoy
TTITLE15=Hurry, Hurry
TTITLE16=I Can't See for Lookin'
TTITLE17=Who Threw the Whiskey in the Well?
TTITLE18=All the Time
TTITLE19=I Know How to Do It
TTITLE20=How Big Can You Get, Little Man?
TTITLE21=More, More, More
TTITLE22=There's Good Blues Tonight
TTITLE23=Shotry's Got to Go
EXTD=\n\n
EXTT0=
EXTT1=
EXTT2=
EXTT3=
EXTT4=
EXTT5=
EXTT6=
EXTT7=
EXTT8=
EXTT9=
EXTT10=
EXTT11=
EXTT12=
EXTT13=
EXTT14=
EXTT15=
EXTT16=
EXTT17=
EXTT18=
EXTT19=
EXTT20=
EXTT21=
EXTT22=
EXTT23=
PLAYORDER=
